HIERARCHY
ROOT Hips
{
	OFFSET 0.00 0.00 0.00
	CHANNELS 6 Xposition Yposition Zposition Yrotation Xrotation Zrotation
	JOINT Spine
	{
		OFFSET	0.0000	9.2263	1.5771
		CHANNELS 3 Xrotation Yrotation Zrotation
		JOINT Spine1
		{
			OFFSET	0.0000	16.2540	-0.1656
			CHANNELS 3 Xrotation Yrotation Zrotation
			JOINT Spine2
			{
				OFFSET	0.0000	13.6396	-1.2923
				CHANNELS 3 Xrotation Yrotation Zrotation
				JOINT Neck
				{
					OFFSET	0.0000	13.8774	-4.3542
					CHANNELS 3 Xrotation Yrotation Zrotation
					JOINT Neck1
					{
						OFFSET	0.0000	4.3400	0.9269
						CHANNELS 3 Xrotation Yrotation Zrotation
						JOINT Head
						{
							OFFSET	0.0000	4.0266	0.8585
							CHANNELS 3 Xrotation Yrotation Zrotation
							End Site
							{
								OFFSET 0.0000 23.0297 0.1231
							}
						}
					}
				}
				JOINT LeftShoulder
				{
					OFFSET	6.1442	10.1870	-3.7932
					CHANNELS 3 Zrotation Xrotation Yrotation
					JOINT LeftArm
					{
						OFFSET	12.3191	-1.1130	-1.7935
						CHANNELS 3 Zrotation Xrotation Yrotation
						JOINT LeftForeArm
						{
							OFFSET	27.6870	0.0000	0.0000
							CHANNELS 3 Xrotation Zrotation Yrotation
							JOINT LeftHand
							{
								OFFSET	27.8738	0.0000	0.0000
								CHANNELS 3 Zrotation Yrotation Xrotation
								End Site
								{
									OFFSET	10.0000	0.0000	0.0000
								}
							}
						}
					}
				}
				JOINT RightShoulder
				{
					OFFSET	-6.1402	10.1870	-3.7932
					CHANNELS 3 Zrotation Xrotation Yrotation
					JOINT RightArm
					{
						OFFSET	-12.3231	-1.1130	-1.7935
						CHANNELS 3 Zrotation Xrotation Yrotation
						JOINT RightForeArm
						{
							OFFSET	-27.6870	0.0000	0.0000
							CHANNELS 3 Xrotation Zrotation Yrotation
							JOINT RightHand
							{
								OFFSET	-27.8738	0.0000	0.0000
								CHANNELS 3 Zrotation Yrotation Xrotation
								End Site
								{
									OFFSET	-10.0000	0.0000	0.0000
								}
							}
						}
					}
				}
			}
		}
	}
	JOINT LeftUpLeg
	{
		OFFSET	9.6338	-3.2733	0.0000
		CHANNELS 3 Xrotation Yrotation Zrotation
		JOINT LeftLeg
		{
			OFFSET	0.0000	-41.7300	-1.7300
			CHANNELS 3 Xrotation Yrotation Zrotation
			JOINT LeftFoot
			{
				OFFSET	0.0126	-39.1900	-0.8477
				CHANNELS 3 Xrotation Yrotation Zrotation
				JOINT LeftToeBase
				{
					OFFSET	-0.1833	-12.1931	8.2823
					CHANNELS 3 Xrotation Yrotation Zrotation
					End Site
					{
						OFFSET 0.0000 0.0000 10.1681
					}
				}
			}
		}
	}
	JOINT RightUpLeg
	{
		OFFSET	-9.6338	-3.2733	0.0000
		CHANNELS 3 Xrotation Yrotation Zrotation
		JOINT RightLeg
		{
			OFFSET	0.0000	-41.7300	-1.7300
			CHANNELS 3 Xrotation Yrotation Zrotation
			JOINT RightFoot
			{
				OFFSET	0.0126	-39.1900	-0.8477
				CHANNELS 3 Xrotation Yrotation Zrotation
				JOINT RightToeBase
				{
					OFFSET	-0.1833	-12.1931	8.2823
					CHANNELS 3 Xrotation Yrotation Zrotation
					End Site
					{
						OFFSET 0.0032 0.0000 10.1681
					}
				}
			}
		}
	}
}
MOTION
Frames: 8
Frame Time: 0.0333333
4.303	94.1921	251.854	3.3241	-0.713	0.5603	4.8932	-4.6243	-1.1126	2.0633	-3.43	0.7104	2.0467	-3.3864	0.822	0.6685	2.8496	-1.2382	0	0	0	-1.5482	7.2856	-1.8676	-14.8968	2.6441	-8.6025	-50.0468	18.4997	-14.1826	0	0	-29.5727	-13.7809	8.1876	9.9925																																														14.6575	1.8625	5.1276	56.7368	20.4874	1.9991	0	0	9.5028	11.4213	7.2296	12.9301																																														-10.0587	6.9577	-2.9698	26.6409	-8.1202	4.0176	-15.1284	-0.2255	1.9589	-6.7613	0	0	-37.0899	-7.8934	-8.8245	70.5516	-0.0356	0.5522	-9.9076	-0.8684	7.3795	-7.4209	0	0
4.0359	94.4344	257.001	4.0632	-0.3604	0.8149	4.9689	-5.5277	-1.3813	2.1286	-4.4468	1.2673	2.085	-4.3998	1.403	0.6516	3.3814	-1.0816	0	0	0	-1.3297	8.5755	-2.1451	-14.4965	2.6561	-8.8628	-47.1138	19.937	-17.1376	0	0	-36.7051	-12.2385	7.6704	9.2189																																														14.6495	1.7731	4.7234	58.1917	19.9089	-1.3684	0	0	9.7797	14.4805	5.5019	12.5023																																														-4.165	7.4869	-3.4476	21.4014	-8.7098	5.1066	-15.9599	-1.1593	0.8228	-6.5784	0	0	-41.8855	-7.212	-8.7284	62.7874	-1.1837	0.6633	-12.9587	-1.1081	7.4344	-6.7819	0	0
3.7219	94.0868	262.1966	4.8644	0.262	1.3596	4.8247	-6.346	-2.2037	2.2862	-5.3692	2.0339	2.1837	-5.309	2.1938	0.5005	3.9195	-1.3435	0	0	0	-1.8181	9.534	-2.1742	-14.079	2.6747	-9.1733	-43.733	20.8791	-19.8324	0	0	-43.6939	-8.5425	7.1703	9.2453																																														14.4427	1.6506	4.2365	59.563	19.2824	-4.3485	0	0	10.4364	16.6762	2.8193	12.108																																														0.8473	8.573	-3.6193	17.2185	-7.1864	5.5196	-17.4222	-4.8328	-0.7743	-6.5235	0	0	-44.5415	-6.0554	-7.9165	50.882	-2.7675	-0.728	-11.7803	-0.9919	7.0608	-6.4927	0	0
3.3477	93.271	267.6088	5.9211	1.0129	2.4087	4.2349	-7.2118	-3.7598	2.566	-6.206	2.8798	2.3849	-6.1235	3.0734	0.3551	4.4473	-1.8969	0	0	0	-2.7739	10.2139	-2.0107	-13.829	2.7477	-9.6614	-39.8354	21.1933	-22.3925	0	0	-49.6673	-3.4403	6.6585	9.3637																																														14.1468	1.5115	3.6994	60.7565	18.4769	-6.7601	0	0	10.8985	18.4869	0.0188	11.227																																														5.4048	10.1509	-3.7871	13.8736	-4.7928	5.3977	-19.1841	-10.0217	-2.7029	-6.7887	0	0	-43.9432	-4.927	-7.1168	35.5362	-4.1249	-3.2634	-10.2259	-0.8857	7.1699	-6.6942	0	0
2.9707	92.0532	273.0812	6.8913	1.8438	3.2727	3.502	-7.5405	-4.6518	2.7019	-7.0275	3.2981	2.4992	-6.9315	3.5143	0.2098	4.8985	-2.3148	0	0	0	-3.585	10.6248	-1.9056	-13.8275	2.8813	-10.3022	-35.6141	21.2036	-24.5016	0	0	-54.6488	3.2516	6.3082	8.5068																																														13.8491	1.335	2.9802	61.7276	17.6361	-8.5933	0	0	11.0024	20.0477	-2.6307	10.1696																																														9.5826	11.3063	-3.8461	11.1641	-2.1983	5.4567	-21.2009	-14.7035	-4.9754	-7.4535	0	0	-40.3026	-5.221	-6.8458	19.2208	-3.4954	-4.8421	-8.6204	-0.8174	7.6607	-6.7995	0	0
2.5395	90.7559	278.5065	7.3407	2.4828	3.5736	3.2188	-7.1985	-4.3799	2.64	-7.6713	3.2471	2.4751	-7.5773	3.4675	-0.0417	5.2013	-2.3817	0	0	0	-4.0444	10.7678	-1.9164	-13.7266	2.9418	-10.6601	-32.1155	21.135	-26.1541	0	0	-57.7081	9.3931	4.9174	7.2816																																														13.6994	1.1643	2.2376	62.3415	16.8853	-9.6041	0	0	10.7313	21.3826	-5.6248	9.2431																																														14.7157	12.1876	-3.9436	6.7651	-1.0252	6.2853	-21.5347	-17.2288	-7.177	-8.5927	0	0	-37.0097	-6.0144	-6.574	8.9445	-1.7191	-4.5887	-4.5508	-0.4817	7.1455	-7.0323	0	0
1.9507	89.5549	284.365	7.1305	2.2791	2.9547	3.6839	-6.6	-3.2082	2.6476	-7.9729	3.1449	2.5037	-7.8818	3.3813	-0.3259	5.3421	-2.126	0	0	0	-4.5825	10.8845	-2.1255	-13.4225	2.8867	-10.5958	-30.9105	20.8298	-26.7543	0	0	-58.418	12.5095	2.844	6.6679																																														13.8903	1.0961	1.888	62.2033	16.6363	-9.5624	0	0	10.0932	22.8321	-8.794	8.522																																														19.2448	13.651	-3.4584	5.1231	-1.6339	8.0027	-19.5828	-17.6792	-8.1528	-11.3671	0	0	-37.3991	-5.9463	-5.5604	12.6172	-1.2046	-3.9693	-1.5415	-0.1232	3.616	-9.6252	0	0
1.2657	88.7718	290.6512	6.459	1.6672	1.8466	4.1905	-6.2444	-1.551	2.6085	-7.9629	2.9643	2.4747	-7.8868	3.2068	-0.357	5.3193	-1.3495	0	0	0	-5.0748	11.4374	-2.9553	-13.3018	2.8043	-10.2785	-32.7543	20.2984	-25.3589	0	0	-57.2811	13.4936	1.7544	6.6717																																														14.3779	1.1348	1.9554	60.9917	17.5644	-8.3535	0	0	9.3205	24.1494	-11.598	8.062																																														21.7027	15.8042	-2.3505	7.6596	-4.8053	9.5768	-12.2553	-15.3852	-5.9988	-19.1616	0	0	-39.1668	-5.6941	-4.4191	21.804	-1.0888	-2.7533	1.8367	0.0366	0.6366	-11.6305	0	0
